<svg width="195" height="79" viewBox="0 0 195 79" fill="none" xmlns="http://www.w3.org/2000/svg">
<path d="M16.4671 70.6466C7.38524 70.6466 0 63.2614 0 54.1795C0 45.0976 7.38524 37.7124 16.4671 37.7124C25.549 37.7124 32.9342 45.0976 32.9342 54.1795C32.9342 63.3113 25.549 70.6466 16.4671 70.6466Z" fill="#00093C"/>
<path d="M16.4671 70.6461C7.38524 70.6461 0 63.2609 0 54.179C0 45.0972 7.38524 37.7119 16.4671 37.7119C25.549 37.7119 32.9342 45.0972 32.9342 54.179C32.9342 63.3108 25.549 70.6461 16.4671 70.6461Z" fill="#00093C"/>
<path d="M55.3903 1.83384L37.526 31.0255C37.027 31.8738 37.5759 32.9217 38.524 32.9217H56.3883H74.2526C75.2007 32.9217 75.7496 31.8239 75.2506 31.0255L57.3863 1.83384C56.8873 1.08533 55.8394 1.08533 55.3903 1.83384Z" fill="#00093C"/>
<path d="M32.5839 6.77396L26.1468 0.336827C25.6977 -0.112276 24.8993 -0.112276 24.4502 0.336827L17.3644 7.42267C16.9153 7.87177 16.1168 7.87177 15.6677 7.42267L8.5819 0.336827C8.13279 -0.112276 7.33439 -0.112276 6.88529 0.336827L0.448155 6.77396C-0.000947557 7.22307 -0.000947557 8.02147 0.448155 8.47058L7.53399 15.5564C7.98309 16.0055 7.98309 16.8039 7.53399 17.253L0.448155 24.3389C-0.000947557 24.788 -0.000947557 25.5864 0.448155 26.0355L6.88529 32.4726C7.33439 32.9217 8.13279 32.9217 8.5819 32.4726L15.6677 25.3868C16.1168 24.9377 16.9153 24.9377 17.3644 25.3868L24.4502 32.4726C24.8993 32.9217 25.6977 32.9217 26.1468 32.4726L32.5839 26.0355C33.0331 25.5864 33.0331 24.788 32.5839 24.3389L25.4981 17.253C25.049 16.8039 25.049 16.0055 25.4981 15.5564L32.5839 8.47058C33.083 8.02147 33.083 7.27297 32.5839 6.77396Z" fill="#00093C"/>
<path d="M42.4969 69V41H53.4169C55.8702 41 57.9635 41.3867 59.6969 42.16C61.4302 42.9333 62.7635 44.0533 63.6969 45.52C64.6302 46.9867 65.0969 48.7333 65.0969 50.76C65.0969 52.7867 64.6302 54.5333 63.6969 56C62.7635 57.44 61.4302 58.5467 59.6969 59.32C57.9635 60.0933 55.8702 60.48 53.4169 60.48H44.6969L46.4969 58.64V69H42.4969ZM61.2169 69L54.0969 58.84H58.3769L65.5769 69H61.2169ZM46.4969 59.04L44.6969 57.08H53.2969C55.8569 57.08 57.7902 56.5333 59.0969 55.44C60.4302 54.32 61.0969 52.76 61.0969 50.76C61.0969 48.76 60.4302 47.2133 59.0969 46.12C57.7902 45.0267 55.8569 44.48 53.2969 44.48H44.6969L46.4969 42.48V59.04ZM79.7194 69.32C77.586 69.32 75.546 69 73.5994 68.36C71.6527 67.6933 70.1194 66.84 68.9994 65.8L70.4794 62.68C71.546 63.6133 72.906 64.3867 74.5594 65C76.2127 65.6133 77.9327 65.92 79.7194 65.92C81.346 65.92 82.666 65.7333 83.6794 65.36C84.6927 64.9867 85.4394 64.48 85.9194 63.84C86.3994 63.1733 86.6394 62.4267 86.6394 61.6C86.6394 60.64 86.3194 59.8667 85.6794 59.28C85.066 58.6933 84.2527 58.2267 83.2394 57.88C82.2527 57.5067 81.1594 57.1867 79.9594 56.92C78.7594 56.6533 77.546 56.3467 76.3194 56C75.1194 55.6267 74.0127 55.16 72.9994 54.6C72.0127 54.04 71.2127 53.2933 70.5994 52.36C69.986 51.4 69.6794 50.1733 69.6794 48.68C69.6794 47.24 70.0527 45.92 70.7994 44.72C71.5727 43.4933 72.746 42.52 74.3194 41.8C75.9194 41.0533 77.946 40.68 80.3994 40.68C82.026 40.68 83.6394 40.8933 85.2394 41.32C86.8394 41.7467 88.226 42.36 89.3994 43.16L88.0794 46.36C86.8794 45.56 85.6127 44.9867 84.2794 44.64C82.946 44.2667 81.6527 44.08 80.3994 44.08C78.826 44.08 77.5327 44.28 76.5194 44.68C75.506 45.08 74.7594 45.6133 74.2794 46.28C73.826 46.9467 73.5994 47.6933 73.5994 48.52C73.5994 49.5067 73.906 50.2933 74.5194 50.88C75.1594 51.4667 75.9727 51.9333 76.9594 52.28C77.9727 52.6267 79.0794 52.9467 80.2794 53.24C81.4794 53.5067 82.6794 53.8133 83.8794 54.16C85.106 54.5067 86.2127 54.96 87.1994 55.52C88.2127 56.08 89.026 56.8267 89.6394 57.76C90.2527 58.6933 90.5594 59.8933 90.5594 61.36C90.5594 62.7733 90.1727 64.0933 89.3994 65.32C88.626 66.52 87.426 67.4933 85.7994 68.24C84.1994 68.96 82.1727 69.32 79.7194 69.32ZM96.4031 69V41H100.403V65.52H115.563V69H96.4031ZM132.753 69V64.52L132.553 63.68V56.04C132.553 54.4133 132.073 53.16 131.113 52.28C130.18 51.3733 128.766 50.92 126.873 50.92C125.62 50.92 124.393 51.1333 123.193 51.56C121.993 51.96 120.98 52.5067 120.153 53.2L118.553 50.32C119.646 49.44 120.953 48.7733 122.473 48.32C124.02 47.84 125.633 47.6 127.313 47.6C130.22 47.6 132.46 48.3067 134.033 49.72C135.606 51.1333 136.393 53.2933 136.393 56.2V69H132.753ZM125.793 69.24C124.22 69.24 122.833 68.9733 121.633 68.44C120.46 67.9067 119.553 67.1733 118.913 66.24C118.273 65.28 117.953 64.2 117.953 63C117.953 61.8533 118.22 60.8133 118.753 59.88C119.313 58.9467 120.206 58.2 121.433 57.64C122.686 57.08 124.366 56.8 126.473 56.8H133.193V59.56H126.633C124.713 59.56 123.42 59.88 122.753 60.52C122.086 61.16 121.753 61.9333 121.753 62.84C121.753 63.88 122.166 64.72 122.993 65.36C123.82 65.9733 124.966 66.28 126.433 66.28C127.873 66.28 129.126 65.96 130.193 65.32C131.286 64.68 132.073 63.7467 132.553 62.52L133.313 65.16C132.806 66.4133 131.913 67.4133 130.633 68.16C129.353 68.88 127.74 69.24 125.793 69.24ZM154.819 47.6C156.553 47.6 158.073 47.9333 159.379 48.6C160.713 49.2667 161.753 50.28 162.499 51.64C163.246 53 163.619 54.72 163.619 56.8V69H159.779V57.24C159.779 55.1867 159.273 53.64 158.259 52.6C157.273 51.56 155.873 51.04 154.059 51.04C152.699 51.04 151.513 51.3067 150.499 51.84C149.486 52.3733 148.699 53.16 148.139 54.2C147.606 55.24 147.339 56.5333 147.339 58.08V69H143.499V47.8H147.179V53.52L146.579 52C147.273 50.6133 148.339 49.5333 149.779 48.76C151.219 47.9867 152.899 47.6 154.819 47.6ZM180.006 77C178.059 77 176.166 76.72 174.326 76.16C172.513 75.6267 171.033 74.8533 169.886 73.84L171.726 70.88C172.713 71.7333 173.926 72.4 175.366 72.88C176.806 73.3867 178.313 73.64 179.886 73.64C182.393 73.64 184.233 73.0533 185.406 71.88C186.579 70.7067 187.166 68.92 187.166 66.52V62.04L187.566 57.84L187.366 53.6V47.8H191.006V66.12C191.006 69.8533 190.073 72.6 188.206 74.36C186.339 76.12 183.606 77 180.006 77ZM179.526 68.12C177.473 68.12 175.633 67.6933 174.006 66.84C172.406 65.96 171.126 64.7467 170.166 63.2C169.233 61.6533 168.766 59.8667 168.766 57.84C168.766 55.7867 169.233 54 170.166 52.48C171.126 50.9333 172.406 49.7333 174.006 48.88C175.633 48.0267 177.473 47.6 179.526 47.6C181.339 47.6 182.993 47.9733 184.486 48.72C185.979 49.44 187.166 50.56 188.046 52.08C188.953 53.6 189.406 55.52 189.406 57.84C189.406 60.1333 188.953 62.04 188.046 63.56C187.166 65.08 185.979 66.2267 184.486 67C182.993 67.7467 181.339 68.12 179.526 68.12ZM179.966 64.76C181.379 64.76 182.633 64.4667 183.726 63.88C184.819 63.2933 185.673 62.48 186.286 61.44C186.926 60.4 187.246 59.2 187.246 57.84C187.246 56.48 186.926 55.28 186.286 54.24C185.673 53.2 184.819 52.4 183.726 51.84C182.633 51.2533 181.379 50.96 179.966 50.96C178.553 50.96 177.286 51.2533 176.166 51.84C175.073 52.4 174.206 53.2 173.566 54.24C172.953 55.28 172.646 56.48 172.646 57.84C172.646 59.2 172.953 60.4 173.566 61.44C174.206 62.48 175.073 63.2933 176.166 63.88C177.286 64.4667 178.553 64.76 179.966 64.76Z" fill="black"/>
</svg>
