<svg width="217" height="310" viewBox="0 0 217 310" fill="none" xmlns="http://www.w3.org/2000/svg">
<path d="M196.978 171.562C205.15 155.281 209.206 137.029 208.75 118.588C208.293 100.147 203.34 82.1466 194.374 66.3435C185.408 50.5405 172.736 37.4747 157.593 28.4214C142.45 19.368 125.354 14.6365 107.975 14.6884C90.5951 14.7404 73.5251 19.5741 58.4305 28.7178C43.336 37.8615 30.7327 51.0029 21.8507 66.8593C12.9687 82.7157 8.11138 100.745 7.75284 119.189C7.39431 137.632 11.5468 155.86 19.805 172.091C19.5166 171.98 19.2511 171.863 18.9581 171.751C11.2305 186.619 7.51534 203.461 8.22127 220.425C8.9272 237.388 14.0268 253.817 22.9594 267.904H23.0051C29.8817 266.963 36.6275 265.152 43.0985 262.51C51.2632 272.307 61.2954 280.152 72.5311 285.525C83.7667 290.898 95.9494 293.677 108.273 293.677C120.596 293.677 132.779 290.898 144.014 285.525C155.25 280.152 165.282 272.307 173.447 262.51C179.918 265.152 186.664 266.963 193.54 267.904H193.586C202.519 253.817 207.618 237.388 208.324 220.425C209.03 203.461 205.315 186.619 197.587 171.751C197.377 171.678 197.184 171.635 196.978 171.562Z" fill="#EDB798"/>
<path d="M130.394 146.301L108.231 169.825L86.0684 146.301C92.6802 143.15 98.2912 138.034 102.224 131.572C106.157 125.11 108.243 117.578 108.231 109.885C108.219 117.578 110.305 125.11 114.238 131.572C118.171 138.034 123.782 143.15 130.394 146.301Z" fill="#FFBC5C"/>
<path d="M42.352 127.369C42.3629 102.269 50.713 77.9768 65.9332 58.7666C81.1535 39.5565 102.269 26.659 125.564 22.3434C111.084 19.5743 96.2085 20.2121 81.9863 24.2118C67.7642 28.2116 54.5424 35.4757 43.2541 45.4916C31.9658 55.5076 22.8861 68.0311 16.6558 82.1785C10.4254 96.3259 7.19629 111.752 7.19629 127.369C7.19629 142.986 10.4254 158.412 16.6558 172.56C22.8861 186.707 31.9658 199.231 43.2541 209.247C54.5424 219.262 67.7642 226.527 81.9863 230.526C96.2085 234.526 111.084 235.164 125.564 232.395C102.269 228.078 81.1544 215.181 65.9343 195.971C50.7142 176.761 42.3638 152.469 42.352 127.369Z" fill="#DEA17E"/>
<path d="M216.463 0C216.463 0 216.463 37.9031 182.631 54.6923C177.104 57.3961 171.289 59.3755 165.312 60.5867C154.709 62.6896 144.452 66.4254 134.867 71.6758C134.821 71.6758 134.771 71.7244 134.679 71.7244C127.871 75.4907 121.56 80.193 115.909 85.7097C113.018 88.4435 110.441 91.5294 108.231 94.9036C108.231 52.3938 137.499 39.91 160.747 35.6192C162.121 35.3665 163.43 35.1673 164.703 34.9681C197.642 29.9678 216.463 0 216.463 0Z" fill="#FFBC5C"/>
<path d="M108.231 94.9036C106.024 91.5299 103.45 88.444 100.563 85.7097C94.9122 80.193 88.6012 75.4907 81.7928 71.7244C81.7012 71.7244 81.6509 71.6758 81.6051 71.6758C72.0199 66.4254 61.7634 62.6896 51.1605 60.5867C45.1835 59.3755 39.3677 57.3961 33.8415 54.6923C0 37.9128 0 0 0 0C0 0 18.8207 29.9678 51.7603 34.9875C53.033 35.1867 54.3515 35.386 55.7158 35.6387C78.9635 39.91 108.231 52.3938 108.231 94.9036Z" fill="#FFBC5C"/>
<path d="M145.484 150.607C166.672 150.607 183.849 132.375 183.849 109.885C183.849 87.3952 166.672 69.1636 145.484 69.1636C124.296 69.1636 107.119 87.3952 107.119 109.885C107.119 132.375 124.296 150.607 145.484 150.607Z" fill="#F3F0F3"/>
<path d="M70.979 150.607C92.1672 150.607 109.344 132.375 109.344 109.885C109.344 87.3952 92.1672 69.1636 70.979 69.1636C49.7907 69.1636 32.6143 87.3952 32.6143 109.885C32.6143 132.375 49.7907 150.607 70.979 150.607Z" fill="#F3F0F3"/>
<path d="M173.406 268.5C165.257 278.318 155.228 286.177 143.989 291.552C132.75 296.927 120.559 299.694 108.232 299.668C104.946 299.672 101.662 299.472 98.398 299.07C77.0127 296.536 57.2835 285.637 43.0576 268.5C60.4331 261.407 75.1994 248.572 85.1764 231.89C92.3608 233.712 99.7189 234.651 107.106 234.689C107.481 234.729 107.859 234.745 108.236 234.737C116.002 234.763 123.743 233.807 131.296 231.89C141.271 248.571 156.034 261.406 173.406 268.5Z" fill="#FCE2C0"/>
<path d="M98.398 299.07C77.0127 296.536 57.2835 285.637 43.0576 268.5C60.4331 261.407 75.1994 248.572 85.1764 231.89C92.3608 233.712 99.7189 234.651 107.106 234.689C92.3274 249.17 77.5034 277.616 98.398 299.07Z" fill="#F2CA9D"/>
<path d="M159.997 114.885C158.748 114.885 157.551 114.359 156.669 113.422C155.786 112.486 155.29 111.215 155.29 109.89C155.29 107.24 154.299 104.699 152.533 102.825C150.768 100.952 148.374 99.8992 145.878 99.8992C143.381 99.8992 140.987 100.952 139.222 102.825C137.457 104.699 136.465 107.24 136.465 109.89C136.485 110.559 136.378 111.225 136.15 111.849C135.922 112.473 135.579 113.042 135.14 113.523C134.702 114.003 134.176 114.385 133.596 114.646C133.015 114.907 132.391 115.041 131.761 115.041C131.131 115.041 130.507 114.907 129.926 114.646C129.346 114.385 128.82 114.003 128.382 113.523C127.943 113.042 127.6 112.473 127.372 111.849C127.144 111.225 127.037 110.559 127.057 109.89C127.018 107.24 127.476 104.608 128.405 102.148C129.333 99.688 130.713 97.4484 132.465 95.5598C134.217 93.6712 136.305 92.1714 138.608 91.1477C140.911 90.1239 143.383 89.5967 145.88 89.5967C148.377 89.5967 150.849 90.1239 153.152 91.1477C155.455 92.1714 157.543 93.6712 159.295 95.5598C161.047 97.4484 162.427 99.688 163.355 102.148C164.284 104.608 164.742 107.24 164.703 109.89C164.703 111.215 164.207 112.486 163.324 113.422C162.442 114.359 161.245 114.885 159.997 114.885Z" fill="#918291"/>
<path d="M84.7043 114.885C84.0861 114.886 83.4738 114.757 82.9025 114.507C82.3313 114.256 81.8122 113.888 81.3751 113.424C80.9379 112.96 80.5913 112.409 80.355 111.802C80.1187 111.196 79.9974 110.546 79.998 109.89C79.998 108.578 79.7545 107.279 79.2815 106.067C78.8085 104.855 78.1151 103.753 77.2411 102.825C76.367 101.898 75.3294 101.162 74.1874 100.66C73.0454 100.158 71.8214 99.8992 70.5854 99.8992C69.3493 99.8992 68.1253 100.158 66.9833 100.66C65.8413 101.162 64.8037 101.898 63.9296 102.825C63.0556 103.753 62.3622 104.855 61.8892 106.067C61.4162 107.279 61.1727 108.578 61.1727 109.89C61.1727 111.215 60.6769 112.486 59.7943 113.422C58.9117 114.359 57.7146 114.885 56.4664 114.885C55.2182 114.885 54.0212 114.359 53.1385 113.422C52.2559 112.486 51.7601 111.215 51.7601 109.89C51.7212 107.24 52.1793 104.608 53.1077 102.148C54.0362 99.688 55.4165 97.4484 57.1682 95.5598C58.9199 93.6712 61.0081 92.1714 63.3112 91.1477C65.6143 90.1239 68.0862 89.5967 70.5831 89.5967C73.0799 89.5967 75.5519 90.1239 77.8549 91.1477C80.158 92.1714 82.2462 93.6712 83.9979 95.5598C85.7496 97.4484 87.1299 99.688 88.0584 102.148C88.9869 104.608 89.445 107.24 89.406 109.89C89.4066 110.546 89.2855 111.195 89.0494 111.801C88.8134 112.407 88.4672 112.958 88.0305 113.422C87.5939 113.886 87.0754 114.254 86.5046 114.505C85.9339 114.756 85.3221 114.885 84.7043 114.885Z" fill="#918291"/>
<path d="M171.899 309.688C171.434 309.687 170.971 309.614 170.526 309.469C129.909 296.439 86.5711 296.439 45.9548 309.469C45.3638 309.662 44.7428 309.73 44.1272 309.668C43.5116 309.606 42.9135 309.417 42.367 309.11C41.2633 308.489 40.4369 307.429 40.0696 306.162C39.7023 304.896 39.8242 303.526 40.4084 302.354C40.9927 301.183 41.9915 300.306 43.185 299.916C85.6068 286.302 130.874 286.302 173.295 299.916C174.373 300.266 175.297 301.015 175.898 302.027C176.5 303.039 176.739 304.246 176.573 305.43C176.407 306.613 175.846 307.694 174.992 308.475C174.139 309.257 173.049 309.687 171.922 309.688H171.899Z" fill="#918291"/>
</svg>
