<svg width="245" height="251" viewBox="0 0 245 251" fill="none" xmlns="http://www.w3.org/2000/svg">
<path d="M199.062 133.344C199.062 90.9483 176.105 70.6055 176.094 70.5938H68.9062C68.8909 70.6055 45.9375 90.9483 45.9375 133.344C45.9375 189.234 91.875 194.38 91.875 211.785C91.875 231.391 68.9062 232.128 68.9062 251C68.9062 251 88.0469 243.156 99.5312 243.156C106.95 243.156 107.666 251 122.5 251C137.334 251 138.054 243.156 145.469 243.156C156.953 243.156 176.094 251 176.094 251C176.094 232.124 153.125 231.391 153.125 211.785C153.125 194.38 199.062 189.234 199.062 133.344Z" fill="#735538"/>
<path d="M229.688 180.41H15.3125C6.85617 180.41 0 187.43 0 196.094C0 204.761 6.85617 211.785 15.3125 211.785H229.688C238.144 211.785 245 204.761 245 196.094C245 187.43 238.144 180.41 229.688 180.41Z" fill="#4D4D4D"/>
<path fill-rule="evenodd" clip-rule="evenodd" d="M107.188 172.562C102.961 172.562 99.5312 176.076 99.5312 180.41C99.5312 176.076 96.1012 172.562 91.875 172.562C87.6488 172.562 84.2188 176.076 84.2188 180.41V196.094C84.2188 200.424 87.6488 203.938 91.875 203.938C96.1012 203.938 99.5312 200.424 99.5312 196.094C99.5312 200.424 102.961 203.938 107.188 203.938C111.414 203.938 114.844 200.424 114.844 196.094V180.41C114.844 176.076 111.414 172.562 107.188 172.562ZM153.125 172.562C148.899 172.562 145.469 176.076 145.469 180.41C145.469 176.076 142.039 172.562 137.812 172.562C133.586 172.562 130.156 176.076 130.156 180.41V196.094C130.156 200.424 133.586 203.938 137.812 203.938C142.039 203.938 145.469 200.424 145.469 196.094C145.469 200.424 148.899 203.938 153.125 203.938C157.351 203.938 160.781 200.424 160.781 196.094V180.41C160.781 176.076 157.351 172.562 153.125 172.562Z" fill="#BF8D5E"/>
<path fill-rule="evenodd" clip-rule="evenodd" d="M180.45 32.8261C182.173 22.4959 183.75 10.2635 183.75 0C175.125 0 164.077 14.4992 157.887 23.7823C156.321 23.6175 154.733 23.5312 153.125 23.5312C141.342 23.5312 130.631 28.1159 122.5 35.5832C114.369 28.1159 103.658 23.5312 91.875 23.5312C90.2672 23.5312 88.6785 23.6175 87.1128 23.7823C80.9227 14.4992 69.8748 0 61.25 0C61.25 10.2635 62.8272 22.4959 64.5498 32.8222C53.276 41.3993 45.9375 55.1023 45.9375 70.5938C45.9375 96.5879 66.5022 117.656 91.875 117.656C103.658 117.656 114.369 113.072 122.5 105.604C130.631 113.072 141.342 117.656 153.125 117.656C178.494 117.656 199.062 96.5879 199.062 70.5938C199.062 55.1023 191.724 41.4032 180.45 32.8261Z" fill="#A67A51"/>
<path fill-rule="evenodd" clip-rule="evenodd" d="M153.125 39.2188C136.212 39.2188 122.5 53.2669 122.5 70.5938C122.5 53.2669 108.788 39.2188 91.875 39.2188C74.9623 39.2188 61.25 53.2669 61.25 70.5938C61.25 87.9245 74.9623 101.973 91.875 101.973C99.2748 101.973 106.058 99.2823 111.352 94.8113L122.5 117.656L133.647 94.8113C138.942 99.2862 145.725 101.973 153.125 101.973C170.038 101.973 183.75 87.9245 183.75 70.5938C183.75 53.2669 170.038 39.2188 153.125 39.2188Z" fill="#E6E6E6"/>
<path fill-rule="evenodd" clip-rule="evenodd" d="M91.875 54.9062C83.4187 54.9062 76.5625 61.9303 76.5625 70.5938C76.5625 79.2572 83.4187 86.2812 91.875 86.2812C100.331 86.2812 107.188 79.2572 107.188 70.5938C107.188 61.9303 100.331 54.9062 91.875 54.9062ZM153.125 54.9062C144.669 54.9062 137.812 61.9303 137.812 70.5938C137.812 79.2572 144.669 86.2812 153.125 86.2812C161.581 86.2812 168.438 79.2572 168.438 70.5938C168.438 61.9303 161.581 54.9062 153.125 54.9062Z" fill="#4D4D4D"/>
</svg>
