<svg width="233" height="260" viewBox="0 0 233 260" fill="none" xmlns="http://www.w3.org/2000/svg">
<path d="M135 55H132.109C129.881 55.0189 127.725 54.1372 126.049 52.5223C124.373 50.9075 123.294 48.6719 123.018 46.24L122.273 39L118.636 51L113.182 43V55L105.909 43V45C105.909 47.6522 104.951 50.1957 103.246 52.0711C101.542 53.9464 99.2292 55 96.8182 55H95V95H135V55Z" fill="#FBE9D0" stroke="#383F51" stroke-width="2" stroke-linecap="round" stroke-linejoin="round"/>
<path d="M202 207.398C197.54 210.127 192.529 211.528 187.447 211.469C174.385 211.469 163.798 201.455 163.798 189.08C163.798 218.308 146.698 242 125.596 242H107.404C86.3021 242 69.2021 218.308 69.2021 189.08C69.2021 201.455 58.6147 211.469 45.5532 211.469C40.4707 211.528 35.4596 210.127 31 207.398C34.0198 207.398 36.4574 194.636 36.4574 178.903C36.4574 161.439 48.3001 146.011 65.5638 140.23C62.6175 137.303 60.2772 133.693 58.7063 129.65C57.1353 125.607 56.3715 121.23 56.4681 116.823C56.4606 113.249 56.9895 109.699 58.0326 106.32C58.2914 105.694 58.5103 105.048 58.6874 104.387C59.7058 100.495 60.1843 96.4521 60.1064 92.3982C60.1259 87.9625 59.3172 83.5712 57.7321 79.5054C56.147 75.4397 53.8205 71.7891 50.9015 68.7876L56.4681 64.3301C51.5448 61.7774 47.3826 57.6924 44.4792 52.5633C41.5758 47.4343 40.054 41.4782 40.0957 35.4071C40.0957 26.7363 42.4606 17.6991 47.3723 12C50.3376 32.354 63.4172 48.6372 78.2979 48.6372C99.4 48.6372 116.5 65.9584 116.5 87.3097C116.5 65.9584 133.6 48.6372 154.702 48.6372C169.583 48.6372 182.662 32.354 185.628 12C190.539 17.6991 192.904 26.7363 192.904 35.4071C192.946 41.4782 191.424 47.4343 188.521 52.5633C185.617 57.6924 181.455 61.7774 176.532 64.3301L182.117 68.7876C179.194 71.7873 176.864 75.4371 175.276 79.5029C173.688 83.5688 172.876 87.961 172.894 92.3982C172.818 96.4453 173.296 100.481 174.313 104.366C174.49 105.027 174.709 105.674 174.967 106.3C176.013 109.685 176.541 113.242 176.532 116.823C176.628 121.23 175.865 125.607 174.294 129.65C172.723 133.693 170.383 137.303 167.436 140.23C184.7 146.011 196.543 161.439 196.543 178.903C196.543 194.636 198.98 207.398 202 207.398Z" fill="#A3A7E4" stroke="#383F51" stroke-width="2" stroke-linecap="round" stroke-linejoin="round"/>
<path d="M156.992 238.326C156.959 239.855 156.41 241.308 155.465 242.37C154.52 243.431 153.255 244.017 151.942 244H131.123C129.824 244.019 128.569 243.457 127.616 242.429C126.662 241.401 126.084 239.985 126 238.475C126 237.497 126 236.52 126 235.5C126 230.804 128.443 227 131.469 227C132.635 227.019 133.772 227.43 134.742 228.184C135.712 228.938 136.475 230.003 136.938 231.25C137.368 230.596 137.919 230.065 138.551 229.697C139.183 229.329 139.878 229.133 140.585 229.125C142.003 229.239 143.338 229.947 144.343 231.119C145.348 232.291 145.956 233.847 146.054 235.5C146.419 234.424 147.017 233.476 147.791 232.751C148.564 232.026 149.486 231.548 150.466 231.364C151.446 231.179 152.451 231.295 153.381 231.7C154.311 232.105 155.134 232.784 155.771 233.672C156.632 235.01 157.064 236.656 156.992 238.326Z" fill="#F1C550" stroke="#383F51" stroke-width="2" stroke-linecap="round" stroke-linejoin="round"/>
<path d="M76.0076 238.326C76.0411 239.855 76.5896 241.308 77.5346 242.369C78.4796 243.431 79.7451 244.016 81.0576 243.999H101.859C103.161 244.024 104.421 243.464 105.378 242.436C106.335 241.407 106.916 239.989 107 238.474C107 237.497 107 236.52 107 235.5C107 230.804 104.557 227 101.531 227C100.365 227.019 99.2283 227.43 98.258 228.184C97.2878 228.938 96.525 230.003 96.0615 231.25C95.6322 230.596 95.0807 230.065 94.4489 229.697C93.8171 229.328 93.1217 229.133 92.4154 229.125C90.9971 229.239 89.6621 229.947 88.6569 231.119C87.6516 232.291 87.044 233.847 86.9461 235.5C86.5815 234.423 85.983 233.476 85.2094 232.751C84.4358 232.026 83.5137 231.548 82.5337 231.363C81.5536 231.179 80.5493 231.295 79.6193 231.7C78.6893 232.105 77.8656 232.784 77.2291 233.672C76.3683 235.01 75.9362 236.656 76.0076 238.326Z" fill="#F1C550" stroke="#383F51" stroke-width="2" stroke-linecap="round" stroke-linejoin="round"/>
<path d="M116.5 140C121.747 140 126 134.627 126 128C126 121.373 121.747 116 116.5 116C111.253 116 107 121.373 107 128C107 134.627 111.253 140 116.5 140Z" fill="#F1C550" stroke="#383F51" stroke-width="2" stroke-linecap="round" stroke-linejoin="round"/>
<path d="M125 122.269C124.425 120.439 123.345 118.851 121.911 117.728C120.477 116.604 118.761 116 117 116C115.239 116 113.523 116.604 112.089 117.728C110.655 118.851 109.575 120.439 109 122.269C111.203 126.734 116.117 132 116.991 132C117.865 132 122.779 126.734 125 122.269Z" stroke="#383F51" stroke-width="2" stroke-linecap="round" stroke-linejoin="round"/>
<path d="M129 102C129 92.8443 137.181 85.4286 147.261 85.4286C153.798 85.4286 167.348 83.3571 171 73" stroke="#383F51" stroke-width="2" stroke-linecap="round" stroke-linejoin="round"/>
<path d="M166 95.6812C166 101.6 163.856 107.277 160.04 111.463C156.223 115.649 151.047 118 145.65 118C136.4 118 129 110.736 129 101.768C129 92.8 137.288 85.5362 147.5 85.5362C152.197 85.5437 156.862 84.6864 161.301 83C164.307 86.3989 165.992 90.9458 166 95.6812Z" fill="white" stroke="#383F51" stroke-width="2" stroke-linecap="round" stroke-linejoin="round"/>
<path d="M157.999 96.5894C157.996 98.7483 157.547 100.874 156.691 102.788C155.835 104.701 154.597 106.345 153.082 107.581C151.567 108.817 149.82 109.608 147.988 109.887C146.155 110.166 144.293 109.926 142.557 109.186C140.821 108.445 139.264 107.227 138.016 105.635C136.769 104.042 135.868 102.122 135.391 100.036C134.913 97.9506 134.873 95.7612 135.273 93.6535C135.673 91.5458 136.502 89.5818 137.689 87.9277C140.685 86.1204 144.013 85.191 147.384 85.2197C150.468 85.2083 153.542 84.7993 156.549 84C157.531 88.0973 158.019 92.3346 157.999 96.5894Z" fill="#57617D" stroke="#383F51" stroke-width="2" stroke-linecap="round" stroke-linejoin="round"/>
<path d="M158 93.5797C158 92.3797 157.845 91.1797 157.724 90.0226C157.237 88.2922 156.257 86.8436 154.97 85.9504C153.683 85.0572 152.177 84.7813 150.737 85.1749C149.297 85.5685 148.023 86.6042 147.155 88.0864C146.287 89.5687 145.886 91.3947 146.028 93.2196C146.169 95.0444 146.843 96.7416 147.923 97.9905C149.002 99.2394 150.412 99.9535 151.886 99.9978C153.359 100.042 154.795 99.4137 155.922 98.2311C157.048 97.0486 157.788 95.3939 158 93.5797Z" fill="white" stroke="#383F51" stroke-width="2" stroke-linecap="round" stroke-linejoin="round"/>
<path d="M104 102C104 92.8443 95.8191 85.4286 85.7391 85.4286C79.2017 85.4286 65.6522 83.3571 62 73" stroke="#383F51" stroke-width="2" stroke-linecap="round" stroke-linejoin="round"/>
<path d="M67 95.6812C67 101.6 69.144 107.277 72.9604 111.463C76.7767 115.649 81.9528 118 87.35 118C96.6 118 104 110.736 104 101.768C104 92.8 95.712 85.5362 85.5 85.5362C80.8027 85.5437 76.1375 84.6864 71.699 83C68.6927 86.3989 67.0079 90.9458 67 95.6812Z" fill="white" stroke="#383F51" stroke-width="2" stroke-linecap="round" stroke-linejoin="round"/>
<path d="M75.0006 96.5894C75.0042 98.7483 75.453 100.874 76.3089 102.788C77.1648 104.701 78.4027 106.345 79.9177 107.581C81.4328 108.817 83.1803 109.608 85.0125 109.887C86.8446 110.166 88.7074 109.926 90.4431 109.186C92.1787 108.445 93.7362 107.227 94.9836 105.635C96.231 104.042 97.1317 102.122 97.6092 100.036C98.0868 97.9506 98.1273 95.7612 97.7272 93.6535C97.3271 91.5458 96.4983 89.5818 95.3109 87.9277C92.3147 86.1204 88.9875 85.191 85.6157 85.2197C82.5318 85.2083 79.4584 84.7993 76.4513 84C75.4695 88.0973 74.9812 92.3346 75.0006 96.5894Z" fill="#57617D" stroke="#383F51" stroke-width="2" stroke-linecap="round" stroke-linejoin="round"/>
<path d="M94.3743 88.0303C92.5317 87.0009 90.5655 86.316 88.5457 86C87.2679 86.3781 86.1306 87.2436 85.3094 88.463C84.4881 89.6825 84.0284 91.1881 84.0013 92.7476C83.9741 94.3071 84.381 95.8338 85.1591 97.0923C85.9373 98.3508 87.0434 99.2711 88.307 99.7113C89.5705 100.151 90.9213 100.087 92.1508 99.5278C93.3804 98.9686 94.4204 97.9458 95.1105 96.6173C95.8006 95.2887 96.1023 93.7281 95.9693 92.1762C95.8363 90.6244 95.2758 89.1675 94.3743 88.0303Z" fill="white" stroke="#383F51" stroke-width="2" stroke-linecap="round" stroke-linejoin="round"/>
</svg>
