<svg width="297" height="282" viewBox="0 0 297 282" fill="none" xmlns="http://www.w3.org/2000/svg">
<path d="M120.656 103.547C96.3162 103.547 76.5703 129.191 76.5703 160.828C76.5703 192.465 107.732 218.109 146.18 218.109C179.499 218.109 206.508 242.762 206.508 273.188C217.97 246.177 225.07 218.109 225.07 193.875C225.07 144.966 203.839 104.406 167.062 90.3281" fill="#A3A7E4"/>
<path d="M120.656 103.547C96.3162 103.547 76.5703 129.191 76.5703 160.828C76.5703 192.465 107.732 218.109 146.18 218.109C179.499 218.109 206.508 242.762 206.508 273.188C217.97 246.177 225.07 218.109 225.07 193.875C225.07 144.966 203.839 104.406 167.062 90.3281" stroke="#383F51" stroke-width="2" stroke-linecap="round" stroke-linejoin="round"/>
<path d="M146.18 8.8125C82.7655 8.8125 74.25 36.5058 74.25 66.0938C74.25 95.6817 82.7655 123.375 146.18 123.375C209.594 123.375 218.109 95.6817 218.109 66.0938C218.109 36.5058 209.594 8.8125 146.18 8.8125Z" fill="#A3A7E4" stroke="#383F51" stroke-width="2" stroke-linecap="round" stroke-linejoin="round"/>
<path d="M169.383 228.993C169.383 232.716 165.229 235.734 160.101 235.734C147.555 235.761 135.351 239.624 125.297 246.75V235.734H109.704C119.681 224.719 132.374 218.109 146.179 218.109C158.988 218.109 169.383 222.978 169.383 228.993Z" fill="#F1C550" stroke="#383F51" stroke-width="2" stroke-linecap="round" stroke-linejoin="round"/>
<path d="M146.179 59.4844C136.898 47.0147 121.862 37.4532 104.715 37.4532C94.572 37.4381 84.662 40.3416 76.2914 45.781C74.8108 52.4578 74.1259 59.2716 74.2495 66.0938C74.2495 95.6818 82.7651 123.375 146.179 123.375C209.593 123.375 218.109 95.6818 218.109 66.0938C218.233 59.2716 217.548 52.4578 216.067 45.781C207.696 40.3416 197.786 37.4381 187.643 37.4532C170.496 37.4532 155.46 47.0147 146.179 59.4844Z" fill="#FBE9D0" stroke="#383F51" stroke-width="2" stroke-linecap="round" stroke-linejoin="round"/>
<path d="M199.547 70.5003C197.8 67.867 195.198 65.8456 192.133 64.7421C189.069 63.6385 185.709 63.513 182.562 64.3843C179.416 65.2557 176.654 67.0766 174.694 69.5715C172.735 72.0663 171.685 75.0992 171.703 78.2113V79.3128" stroke="#383F51" stroke-width="2" stroke-linecap="round" stroke-linejoin="round"/>
<path d="M92.8125 70.5003C94.5592 67.867 97.1618 65.8456 100.226 64.7421C103.291 63.6385 106.651 63.513 109.797 64.3843C112.944 65.2557 115.706 67.0766 117.665 69.5715C119.624 72.0663 120.674 75.0992 120.656 78.2113V79.3128" stroke="#383F51" stroke-width="2" stroke-linecap="round" stroke-linejoin="round"/>
<path d="M146.18 90.3281C174.023 90.3281 160.496 132.188 146.18 132.188C131.863 132.188 118.336 90.3281 146.18 90.3281Z" fill="#F1C550" stroke="#383F51" stroke-width="2" stroke-linecap="round" stroke-linejoin="round"/>
</svg>
