<svg width="195" height="263" viewBox="0 0 195 263" fill="none" xmlns="http://www.w3.org/2000/svg">
<path d="M97.2937 259.153C95.2565 259.131 93.265 258.716 91.4109 257.928C46.1103 238.722 17.932 213.15 7.72274 181.913C-5.8743 140.394 17.497 102.966 17.7259 102.594L18.6416 101.172L17.9548 99.6188C10.172 81.9 14.7502 71.1156 18.8018 61.6C19.3283 60.375 19.8319 59.1937 20.3126 58.0125C22.6016 52.325 20.9306 47.7094 18.2524 44.4281C19.397 44.1 20.1523 43.8156 20.2439 43.7937L26.4015 41.5406L20.9306 38.0187C17.932 36.0937 15.3224 32.5938 13.308 29.1594C16.5127 30.0344 18.9391 30.1219 19.1223 30.1219L28.1641 30.3625L21.5716 24.4563C15.0935 18.6594 13.5827 11.5062 13.4454 6.58437C19.4656 11.0469 30.6134 18.2875 46.5452 24.6094C66.1854 32.3969 88.3664 34.5625 97.3395 34.6062C106.358 34.5625 128.517 32.4188 148.157 24.6094C164.089 18.2875 175.259 11.025 181.279 6.5625C181.142 11.4625 179.654 18.5938 173.13 24.4344L166.538 30.3406L175.58 30.1C175.763 30.1 178.212 30.0125 181.394 29.1375C179.38 32.5938 176.77 36.0937 173.771 37.9969L168.3 41.5187L174.458 43.7719C174.527 43.7938 175.282 44.0781 176.45 44.4062C173.771 47.6875 172.1 52.3031 174.389 57.9906C174.87 59.1719 175.374 60.375 175.9 61.5781C179.952 71.0938 184.53 81.8563 176.747 99.5969L176.06 101.128L176.976 102.55C177.205 102.922 200.576 140.481 186.956 181.934C176.701 213.128 148.546 238.678 103.291 257.884C101.437 258.672 99.4455 259.066 97.3624 259.109L97.2937 259.153Z" fill="url(#paint0_linear_26_13)"/>
<path d="M176.335 13.9344C175.282 16.6687 173.543 19.4906 170.704 22.0281L157.519 33.8406L174.001 33.425C173.268 34.1687 172.536 34.8031 171.78 35.2844L160.838 42.3281L171.277 46.1562C169.377 50.2031 169.285 54.6875 171.093 59.1719C171.574 60.375 172.101 61.5781 172.627 62.825C176.61 72.1875 180.73 81.8563 173.497 98.3281L172.146 101.412L173.955 104.278C174.184 104.65 196.754 141.072 183.569 181.059C173.611 211.291 146.097 236.141 101.804 254.909C100.453 255.478 99.0109 255.784 97.5459 255.85L97.317 255.828L97.088 255.872C95.5773 255.828 94.1352 255.5 92.8075 254.931C48.5141 236.163 20.9996 211.312 11.0422 181.081C-2.14281 141.094 20.4273 104.672 20.6563 104.322L22.4875 101.456L21.137 98.3719C13.9035 81.9 18.0238 72.2094 22.0068 62.8687C22.5333 61.6219 23.0598 60.4188 23.5405 59.2156C25.3488 54.7313 25.2573 50.225 23.3573 46.2L33.7955 42.3719L22.8538 35.3281C22.0984 34.8469 21.343 34.2125 20.6334 33.4688L37.1146 33.8844L23.9296 22.0719C21.0912 19.5344 19.3515 16.7125 18.3214 13.9781C24.8452 18.1562 33.8641 23.1437 45.2179 27.6719C65.3159 35.6562 87.4053 37.8656 97.3856 37.9094C107.274 37.8656 129.364 35.6562 149.462 27.6719C160.793 23.1219 169.812 18.1125 176.335 13.9344ZM184.05 0C184.05 0 171.071 11.9438 146.784 21.5688C127.052 29.4 105.26 31.2594 97.2941 31.3031C89.3052 31.2594 67.5363 29.4 47.8045 21.5688C23.5176 11.9219 10.5386 0 10.5386 0C10.5386 0 6.60141 15.575 19.1913 26.8406C19.1913 26.8406 11.5687 26.6437 6.05203 21.7656C6.05203 21.7656 10.8133 35.4812 18.9852 40.7312C18.9852 40.7312 14.4071 42.4156 10.447 42.4813C10.447 42.4813 20.908 47.3375 17.0853 56.8312C12.7819 67.5719 5.43399 79.6031 14.7734 100.888C14.7734 100.888 -49.4806 201.775 90.0148 260.925C92.3268 261.909 94.799 262.391 97.2712 262.434C99.7434 262.413 102.238 261.909 104.528 260.925C244.023 201.797 179.769 100.888 179.769 100.888C189.108 79.6031 181.76 67.5719 177.457 56.8312C173.657 47.3156 184.095 42.4813 184.095 42.4813C180.158 42.4156 175.557 40.7312 175.557 40.7312C183.729 35.4594 188.49 21.7656 188.49 21.7656C182.974 26.6437 175.351 26.8406 175.351 26.8406C187.964 15.575 184.05 0 184.05 0Z" fill="#5D4037"/>
<path d="M137.375 115.084C155.087 115.084 169.445 101.363 169.445 84.4374C169.445 67.5116 155.087 53.7905 137.375 53.7905C119.664 53.7905 105.306 67.5116 105.306 84.4374C105.306 101.363 119.664 115.084 137.375 115.084Z" fill="#E39B73"/>
<path d="M137.375 107.953C150.965 107.953 161.982 97.4248 161.982 84.4375C161.982 71.4502 150.965 60.9219 137.375 60.9219C123.785 60.9219 112.768 71.4502 112.768 84.4375C112.768 97.4248 123.785 107.953 137.375 107.953Z" fill="white"/>
<path d="M137.375 93.1875C142.432 93.1875 146.531 89.27 146.531 84.4375C146.531 79.605 142.432 75.6875 137.375 75.6875C132.318 75.6875 128.219 79.605 128.219 84.4375C128.219 89.27 132.318 93.1875 137.375 93.1875Z" fill="#2F2F2F"/>
<path d="M57.2123 115.084C74.924 115.084 89.2821 101.363 89.2821 84.4374C89.2821 67.5116 74.924 53.7905 57.2123 53.7905C39.5007 53.7905 25.1426 67.5116 25.1426 84.4374C25.1426 101.363 39.5007 115.084 57.2123 115.084Z" fill="#E39B73"/>
<path d="M57.2119 107.953C70.8022 107.953 81.8193 97.4248 81.8193 84.4375C81.8193 71.4502 70.8022 60.9219 57.2119 60.9219C43.6216 60.9219 32.6045 71.4502 32.6045 84.4375C32.6045 97.4248 43.6216 107.953 57.2119 107.953Z" fill="white"/>
<path d="M57.2119 93.1875C62.2688 93.1875 66.3682 89.27 66.3682 84.4375C66.3682 79.605 62.2688 75.6875 57.2119 75.6875C52.1551 75.6875 48.0557 79.605 48.0557 84.4375C48.0557 89.27 52.1551 93.1875 57.2119 93.1875Z" fill="#2F2F2F"/>
<path d="M97.2941 122.719C56.7777 122.719 41.4868 139.694 41.4639 168C41.4639 190.597 53.985 211.597 64.881 223.191C78.6611 237.847 97.2941 238.941 97.2941 238.941C97.2941 238.941 115.927 237.825 129.707 223.191C140.603 211.597 153.124 190.597 153.124 168C153.101 139.672 137.811 122.719 97.2941 122.719Z" fill="url(#paint1_linear_26_13)"/>
<path d="M36.8631 251.015C32.697 251.015 29.3092 247.844 29.1719 243.906L24.5938 221.09V220.872C24.5938 216.825 28.0502 213.522 32.285 213.522H33.3609C37.5956 213.522 41.0521 216.825 41.0521 220.872V243.665C41.0521 244.344 41.2581 245.065 41.4412 245.744C41.7846 246.947 42.1966 248.456 41.1437 249.747C40.457 250.578 39.3811 251.015 37.939 251.015H36.8631Z" fill="#FFC148"/>
<path d="M33.3609 215.731C36.3366 215.731 38.763 218.05 38.763 220.894V243.709C38.763 246.553 40.9148 248.872 37.939 248.872H36.8631C33.8873 248.872 31.4609 246.553 31.4609 243.709L26.8828 220.894C26.8828 218.05 29.3092 215.731 32.285 215.731H33.3609ZM33.3609 211.356H32.285C26.7912 211.356 22.3047 215.622 22.3047 220.894V221.309L22.3963 221.725L26.9057 244.191C27.1575 249.222 31.5296 253.247 36.8631 253.247H37.939C40.663 253.247 42.1737 252.087 42.952 251.125C44.6688 248.981 44.0279 246.641 43.6388 245.241C43.4785 244.694 43.3183 244.103 43.3183 243.709V220.872C43.3183 215.622 38.8546 211.356 33.3609 211.356Z" fill="#885C52"/>
<path d="M50.0711 251.015C45.8364 251.015 42.3799 247.712 42.3799 243.665V220.872C42.3799 216.825 45.8364 213.522 50.0711 213.522H51.147C55.3818 213.522 58.8382 216.825 58.8382 220.872V243.665C58.8382 247.712 55.3818 251.015 51.147 251.015H50.0711Z" fill="#FFC148"/>
<path d="M51.147 215.731C54.1228 215.731 56.5492 218.05 56.5492 220.894V243.709C56.5492 246.553 54.1228 248.872 51.147 248.872H50.0711C47.0954 248.872 44.6689 246.553 44.6689 243.709V220.872C44.6689 218.028 47.0954 215.709 50.0711 215.709H51.147M51.147 211.356H50.0711C44.5774 211.356 40.0908 215.622 40.0908 220.894V243.709C40.0908 248.959 44.5545 253.247 50.0711 253.247H51.147C56.6407 253.247 61.1273 248.981 61.1273 243.709V220.872C61.1044 215.622 56.6407 211.356 51.147 211.356Z" fill="#885C52"/>
<path d="M63.2788 251.015C61.8367 251.015 60.7608 250.6 60.0741 249.747C59.044 248.456 59.4561 246.969 59.7765 245.744C59.9597 245.044 60.1657 244.344 60.1657 243.665V220.872C60.1657 216.825 63.6222 213.522 67.8569 213.522H68.9328C73.1675 213.522 76.624 216.825 76.624 220.872V221.09L72.0459 243.906C71.9315 247.844 68.5207 251.015 64.3547 251.015H63.2788Z" fill="#FFC148"/>
<path d="M68.91 215.731C71.8858 215.731 74.3122 218.05 74.3122 220.894L69.7341 243.709C69.7341 246.553 67.3077 248.872 64.3319 248.872H63.256C60.2803 248.872 62.432 246.553 62.432 243.709V220.872C62.432 218.028 64.8584 215.709 67.8342 215.709H68.91M68.91 211.356H67.8342C62.3404 211.356 57.8538 215.622 57.8538 220.894V243.709C57.8538 244.103 57.6936 244.694 57.5334 245.241C57.1442 246.641 56.5033 249.003 58.2201 251.125C58.9984 252.087 60.5092 253.247 63.2331 253.247H64.309C69.6425 253.247 74.0146 249.222 74.2664 244.191L78.7759 221.725L78.8674 221.309V220.872C78.8903 215.622 74.4267 211.356 68.91 211.356Z" fill="#885C52"/>
<path d="M130.142 251.015C125.976 251.015 122.589 247.844 122.451 243.906L117.873 221.09V220.872C117.873 216.825 121.33 213.522 125.564 213.522H126.64C130.875 213.522 134.331 216.825 134.331 220.872V243.665C134.331 244.344 134.537 245.065 134.721 245.744C135.064 246.947 135.476 248.456 134.423 249.747C133.736 250.578 132.66 251.015 131.218 251.015H130.142Z" fill="#FFC148"/>
<path d="M126.64 215.731C129.616 215.731 132.042 218.05 132.042 220.894V243.709C132.042 246.553 134.194 248.872 131.218 248.872H130.142C127.167 248.872 124.74 246.553 124.74 243.709L120.162 220.894C120.162 218.05 122.589 215.731 125.564 215.731H126.64ZM126.64 211.356H125.564C120.071 211.356 115.584 215.622 115.584 220.894V221.309L115.676 221.725L120.185 244.169C120.437 249.2 124.809 253.225 130.142 253.225H131.218C133.942 253.225 135.453 252.066 136.231 251.103C137.948 248.959 137.307 246.619 136.918 245.219C136.758 244.672 136.598 244.081 136.598 243.687V220.872C136.598 215.622 132.134 211.356 126.64 211.356Z" fill="#885C52"/>
<path d="M143.35 251.015C139.116 251.015 135.659 247.712 135.659 243.665V220.872C135.659 216.825 139.116 213.522 143.35 213.522H144.426C148.661 213.522 152.118 216.825 152.118 220.872V243.665C152.118 247.712 148.661 251.015 144.426 251.015H143.35Z" fill="#FFC148"/>
<path d="M144.426 215.731C147.402 215.731 149.828 218.05 149.828 220.894V243.709C149.828 246.553 147.402 248.872 144.426 248.872H143.35C140.375 248.872 137.948 246.553 137.948 243.709V220.872C137.948 218.028 140.375 215.709 143.35 215.709H144.426M144.426 211.356H143.35C137.857 211.356 133.37 215.622 133.37 220.894V243.709C133.37 248.959 137.834 253.247 143.35 253.247H144.426C149.92 253.247 154.407 248.981 154.407 243.709V220.872C154.384 215.622 149.92 211.356 144.426 211.356Z" fill="#885C52"/>
<path d="M156.558 251.015C155.116 251.015 154.04 250.6 153.353 249.747C152.323 248.456 152.735 246.969 153.056 245.744C153.239 245.044 153.445 244.344 153.445 243.665V220.872C153.445 216.825 156.901 213.522 161.136 213.522H162.212C166.447 213.522 169.903 216.825 169.903 220.872V221.09L165.325 243.906C165.211 247.844 161.8 251.015 157.634 251.015H156.558Z" fill="#FFC148"/>
<path d="M162.189 215.731C165.165 215.731 167.592 218.05 167.592 220.894L163.013 243.709C163.013 246.553 160.587 248.872 157.611 248.872H156.535C153.56 248.872 155.711 246.553 155.711 243.709V220.872C155.711 218.028 158.138 215.709 161.113 215.709H162.189M162.189 211.356H161.113C155.62 211.356 151.133 215.622 151.133 220.894V243.709C151.133 244.103 150.973 244.694 150.813 245.241C150.424 246.641 149.783 249.003 151.499 251.125C152.278 252.087 153.788 253.247 156.512 253.247H157.588C162.922 253.247 167.294 249.222 167.546 244.191L172.055 221.725L172.147 221.309V220.872C172.17 215.622 167.706 211.356 162.189 211.356Z" fill="#885C52"/>
<path d="M104.413 101.084C100.636 96.7968 93.9518 96.7968 90.1749 101.084C87.3364 104.322 85.2763 108.959 85.6654 115.019C86.2148 123.812 95.1421 135.537 97.4999 135.537C99.2167 135.537 108.213 123.791 108.762 115.019C109.105 108.959 107.251 104.322 104.413 101.084Z" fill="#FFC107"/>
<defs>
<linearGradient id="paint0_linear_26_13" x1="97.2809" y1="10.1942" x2="97.2809" y2="260.845" gradientUnits="userSpaceOnUse">
<stop offset="0.00305724" stop-color="#A1887F"/>
<stop offset="0.0798" stop-color="#9A8077"/>
<stop offset="0.4703" stop-color="#795D54"/>
<stop offset="0.7906" stop-color="#64483F"/>
<stop offset="0.9988" stop-color="#5D4037"/>
</linearGradient>
<linearGradient id="paint1_linear_26_13" x1="97.2939" y1="122.712" x2="97.2939" y2="237.421" gradientUnits="userSpaceOnUse">
<stop offset="0.00305724" stop-color="#FFF8E1"/>
<stop offset="0.2432" stop-color="#FFF0C2"/>
<stop offset="0.5646" stop-color="#FFE79F"/>
<stop offset="0.8284" stop-color="#FFE28A"/>
<stop offset="1" stop-color="#FFE082"/>
</linearGradient>
</defs>
</svg>
