<svg width="98" height="99" viewBox="0 0 98 99" fill="none" xmlns="http://www.w3.org/2000/svg">
<path d="M19.8935 83.9842C9.64655 83.9842 1.3125 75.6502 1.3125 65.4032C1.3125 55.1563 9.64655 46.8223 19.8935 46.8223C30.1404 46.8223 38.4744 55.1563 38.4744 65.4032C38.4744 75.7075 30.1424 83.9842 19.8935 83.9842Z" stroke="#00093C" stroke-width="2"/>
<path d="M67.0143 2.16803L67.0144 2.16805L67.0189 2.16054C67.0973 2.02981 67.2092 1.97852 67.3259 1.97852C67.4431 1.97852 67.5854 2.03287 67.6944 2.1884L88.9243 36.8797L88.9242 36.8798L88.9292 36.8878C89.0206 37.034 89.0249 37.2192 88.9407 37.3821C88.8598 37.5387 88.7333 37.6125 88.5905 37.6125H67.3481H46.1057C45.9422 37.6125 45.8232 37.5331 45.7523 37.3983C45.6797 37.2601 45.6646 37.0669 45.7775 36.8707L67.0143 2.16803Z" stroke="#00093C" stroke-width="2"/>
<path d="M38.3074 10.3076L38.2878 10.3251L38.2693 10.3437L29.8435 18.7695C28.9189 19.694 28.9189 21.2766 29.8435 22.2011L38.2693 30.6269C38.4128 30.7704 38.4128 31.0866 38.2693 31.2301L30.6149 38.8845C30.4714 39.028 30.1552 39.028 30.0117 38.8845L21.5859 30.4587C20.6614 29.5342 19.0788 29.5342 18.1543 30.4587L9.7285 38.8845C9.585 39.028 9.26879 39.028 9.12528 38.8845L1.47091 31.2301C1.32741 31.0866 1.3274 30.7704 1.47091 30.6269L9.89665 22.2011C10.8212 21.2766 10.8212 19.694 9.89665 18.7695L1.47091 10.3437C1.32741 10.2002 1.32741 9.88402 1.47091 9.74052L9.12528 2.08614C9.26879 1.94264 9.585 1.94264 9.7285 2.08614L18.1543 10.5119C19.0788 11.4364 20.6614 11.4364 21.5859 10.5119L30.0117 2.08614C30.1552 1.94264 30.4714 1.94264 30.6149 2.08614L38.2693 9.74052C38.3863 9.85761 38.4214 9.97719 38.4214 10.0644C38.4214 10.1485 38.3903 10.2329 38.3074 10.3076Z" stroke="#00093C" stroke-width="2"/>
<path d="M58.9857 78.659C59.2724 79.1794 74.0121 89.5488 78.045 92.38C78.6694 92.8184 79.479 92.8555 80.1472 92.4874L92.9803 85.417C93.7472 84.9945 94.1497 84.1236 93.9602 83.2688C93.4486 80.9614 92.3648 76.3613 91.1853 73.1081C89.635 68.8327 86.8785 63.2914 86.4097 62.4415C85.0896 60.0482 79.4649 61.8352 79.4649 61.8352C79.4649 61.8352 78.704 60.1599 78.5286 60.1347C73.7426 59.4471 73.4569 62.9291 73.4569 62.9291C73.4569 62.9291 71.8961 62.1201 70.8297 62.1602C69.3215 62.217 67.4488 64.0229 67.4488 64.0229L63.7019 57.2221C63.2335 56.372 62.124 56.2622 61.0747 56.4533C60.3327 56.5884 59.8948 56.8296 59.3842 57.3846C58.6621 58.1695 58.1625 59.1658 58.6305 60.0162C58.8601 60.4333 66.5927 74.4679 67.9978 77.0182C69.2911 79.3657 61.8439 75.2174 61.4298 75.0961C60.1167 74.7114 57.5806 76.1087 58.9857 78.659Z" fill="white"/>
<path d="M71.1957 70.8237L67.4488 64.0229M67.4488 64.0229C67.4488 64.0229 65.1651 59.878 63.7019 57.2221C63.2335 56.372 62.124 56.2622 61.0747 56.4533C60.3327 56.5884 59.8948 56.8296 59.3842 57.3846C58.6621 58.1695 58.1625 59.1658 58.6305 60.0162C58.8601 60.4333 66.5927 74.4679 67.9978 77.0182C69.2911 79.3657 61.8439 75.2174 61.4298 75.0961C60.1167 74.7114 57.5806 76.1087 58.9857 78.659C59.2724 79.1794 74.0121 89.5488 78.045 92.38C78.6694 92.8184 79.479 92.8555 80.1472 92.4874L92.9803 85.417C93.7472 84.9945 94.1497 84.1236 93.9602 83.2688C93.4486 80.9614 92.3648 76.3613 91.1853 73.1081C89.635 68.8327 86.8785 63.2914 86.4097 62.4415C85.0896 60.0482 79.4649 61.8352 79.4649 61.8352M67.4488 64.0229C67.4488 64.0229 69.3215 62.217 70.8297 62.1602C71.8961 62.1201 73.4569 62.9291 73.4569 62.9291M73.4569 62.9291L76.267 68.0297M73.4569 62.9291C73.4569 62.9291 73.7426 59.4471 78.5286 60.1347C78.704 60.1599 79.4649 61.8352 79.4649 61.8352M82.2751 66.9358L79.4649 61.8352" stroke="#00093C" stroke-width="2"/>
</svg>
